<svg xmlns="http://www.w3.org/2000/svg" style="isolation:isolate" viewBox="-3325 1520 7417.1 880" width="9889.5" height="880pt"><path fill="#FDFF00" d="M-3325 1520h7417v880h-7417z"/><clipPath id="a"><path fill="#FDFF00" d="M-3325 1520h7417v880h-7417z"/></clipPath><g clip-path="url(#a)"><path fill="#FDFF00" d="M-3291 1538h2231v844h-2231z"/><clipPath id="b"><path fill="#FDFF00" d="M-3291 1538h2231v844h-2231z"/></clipPath><g clip-path="url(#b)"><path d="M-1316 1557q30-1 52 7 19-1 26 9l39 70c8 7 19-2 28 1l8 4 69 161 16 41c8 8 9 21 8 32l-30 91c-1 15-5 31-16 42l-43 22c-10 3-20 11-17 22l10 43q-7-2 28 185l-75 39c-21 21-54 22-81 19l-94-24c-22-2-45-11-57-31l-2-3-49-14c-14-2-30 5-33 20l17 21c5 2 7 8 7 13l-5 7q-7 12-27 12-22-3-36 3-83-1-157 7l-7-4-24-38c-9-4-12-14-11-24l2-4 39-147c2-14 2-28-1-42l19-88 17-42c-1-8-1-18 7-22l19-21 71-80 17-19c5-7 6-16 6-24l11-57 1-9 9-46c-1-6 0-12 3-16l3-15-1-2c0-26 23-35 45-38l6 4 2 3 40 39c3 10 13 15 23 15l97-79 10-26c1-6 3-13 9-16l2-1Z" fill="#FDFDFD"/><path d="m-3007 2115-90-271h62l43 153q9 31 11 47 3-24 11-47l54-153h49l54 153q8 24 12 47 2-19 10-47l43-153h62l-90 271h-49l-55-153q-8-22-12-45-3 23-11 45l-55 153h-49Zm408 5q-30 0-55-14-24-14-38-38-14-25-14-53 0-29 14-53 14-25 38-39 25-14 55-14 31 0 55 14 25 14 39 39 14 24 14 53 0 28-14 53-14 24-39 38-24 14-55 14Zm-55-105q0 16 7 29t20 21q12 7 28 7 17 0 29-7 13-8 20-21 6-13 6-29t-7-29q-6-14-19-22-12-7-29-7-16 0-28 7-13 8-20 22-7 13-7 29Zm186 100v-202h51v39q5-22 21-33 16-12 41-10v49h-7q-23 0-39 15-15 14-15 39v103h-52Zm264 0-81-96v96h-52v-283h52v163l76-82h74l-95 94 95 108h-69Z"/><path d="M-2121 2115v-202h52v202h-52Zm-5-249q0-13 9-22t22-9q13 0 22 9t9 22q0 13-9 22t-22 9q-13 0-22-9t-9-22Zm88 249v-202h52v30q16-34 61-34 22 0 40 10 17 10 27 29t10 44v123h-52v-110q0-26-12-38-11-12-32-12-17 0-29 12-12 13-12 38v110h-53Z" fill="#545500"/><path d="M-1815 2115v-271h92q43 0 67 19 23 19 23 52 0 21-10 34-9 14-33 23 31 7 45 24 13 17 13 44 0 23-11 40-12 16-34 26-22 9-51 9h-101Zm54-49h42q46 0 46-34 0-15-12-24-12-8-34-8h-42v66Zm0-110h33q21 0 31-8 9-8 9-24 0-32-40-32h-33v64Zm224 159-90-271h62l43 153q9 31 11 47 3-24 11-47l54-153h49l54 153q8 24 12 47 2-19 10-47l43-153h62l-90 271h-49l-55-153q-8-22-11-45-4 23-12 45l-55 153h-49Z"/></g><path d="M3107 2084v-210h42v172h78v38h-120Zm213 4q-21 0-38-11-18-11-29-29-10-19-10-41 0-23 10-41 11-19 29-30 17-11 38-11 20 0 32 7 11 7 18 21v-25h40v156h-39v-25q-7 14-19 22-12 7-32 7Zm-47-197q0-10 7-17t17-7q11 0 18 7t7 17q0 10-7 17t-18 7q-10 0-17-7t-7-17Zm11 115q0 12 5 23 6 10 16 16 9 7 22 7t23-6q10-6 16-17 5-10 5-22 0-13-5-23-6-10-16-17-10-6-23-6t-23 6q-10 7-15 17t-5 22Zm53-115q0-10 7-17t17-7q11 0 17 7 7 7 7 17t-7 17q-6 7-17 7-10 0-17-7t-7-17Zm108 193v-156h40v23q13-27 48-27 17 0 31 8 13 8 21 23 8 14 8 34v95h-41v-85q0-20-9-30-9-9-24-9-14 0-24 10-9 9-9 29v85h-41Zm253 4q-21 0-39-11t-28-29q-11-19-11-41 0-23 11-41 10-19 28-30t39-11q19 0 31 7t18 20v-87h41v219h-40v-25q-7 14-18 22-12 7-32 7Zm-37-82q0 12 6 23 5 10 15 16 10 7 22 7 13 0 23-6 11-6 16-17 5-10 5-22 0-13-5-23t-16-17q-10-6-23-6-12 0-22 6-10 7-15 17-6 10-6 22Zm184 82q-12 0-20-8-8-7-8-18t8-19q8-7 20-7 11 0 19 7 7 8 7 19t-7 19q-8 7-19 7Zm-1216-4q-24 0-36-11-12-12-12-37v-74h-22v-34h22v-32l41-4v36h33v34h-33v72q0 14 12 14h17v36h-22Zm50 0v-219h41v85q12-26 47-26 17 0 30 8 14 8 22 23 8 14 8 34v95h-41v-85q0-20-9-30-9-9-25-9-14 0-23 10-9 9-9 29v85h-41Zm256 4q-24 0-42-11t-29-29q-10-19-10-42 0-22 11-41 10-19 29-30 18-11 41-11t41 11q18 11 29 30 10 19 10 41 0 8-2 15h-117q4 14 14 23 10 8 25 8 13 0 23-6t15-15l32 24q-10 15-28 24-19 9-42 9Zm-39-98h78q-4-13-14-22-11-9-25-9-15 0-25 9-10 8-14 22Zm-619 94q-23 0-36-11-12-12-12-37v-74h-22v-34h22v-32l41-4v36h33v34h-33v72q0 14 13 14h17v36h-23Zm124 4q-24 0-43-11t-30-29q-11-19-11-42 0-22 11-41t30-30q19-11 43-11t43 11q19 11 29 30 11 19 11 41 0 23-11 42-10 18-29 29t-43 11Zm-43-82q0 13 5 23 6 10 15 16 10 6 23 6t22-6q10-6 15-16 6-10 6-23 0-12-6-22-5-10-15-17-9-6-22-6t-22 6q-10 7-15 17-6 10-6 22Zm-1454 78v-210l68-1q36 0 56 17 21 17 21 48 0 24-13 40-14 15-38 20l59 86h-50l-44-66-9-16h-7v82h-43Zm43-120h23q17 0 27-6 9-7 9-20t-9-20q-10-6-27-6h-23v52Zm199 124q-24 0-42-11-19-11-29-29-10-19-10-42 0-22 10-41 11-19 29-30 19-11 42-11t41 11q18 11 28 30t10 41l-1 15h-117q4 14 14 23 10 8 25 8 12 0 22-6t16-15l32 24q-10 15-29 24-18 9-41 9Zm-39-98h77q-3-13-14-22-10-9-25-9-14 0-24 9-11 8-14 22Zm147 94v-219h41v219h-41Zm153 4q-24 0-43-11t-30-29q-10-19-10-42 0-22 10-41 11-19 30-30t43-11q24 0 43 11t30 30q10 19 10 41 0 23-10 42-11 18-30 29t-43 11Zm-43-82q0 13 6 23 5 10 15 16 9 6 22 6t22-6q10-6 15-16 6-10 6-23 0-12-6-22-5-10-15-17-9-6-22-6t-22 6q-10 7-15 17-6 10-6 22Zm229 82q-22 0-41-11-18-11-29-30t-11-41q0-22 11-41t30-30q19-11 43-11 21 0 37 8 17 7 27 21l-32 26q-5-8-14-13-8-5-19-5-12 0-22 6t-15 17q-5 10-5 22t5 23q6 10 16 16t22 6q11 0 19-5 9-4 15-13l30 25q-24 30-67 30Zm155 0q-21 0-39-11t-28-29q-10-19-10-41 0-23 10-41 10-19 28-30t39-11q19 0 31 7t19 21v-25h40v156h-39v-25q-7 14-19 22-12 7-32 7Zm-37-82q0 12 6 23 5 10 15 16 10 7 23 7t23-6q10-6 15-17 6-10 6-22 0-13-6-23-5-10-15-17-10-6-23-6t-23 6q-10 7-15 17-6 10-6 22Zm221 78q-23 0-35-11-12-12-12-37v-74h-22v-34h22v-32l40-4v36h33v34h-33v72q0 14 13 14h17v36h-23Zm122 4q-24 0-43-11-18-11-28-29-10-19-10-42 0-22 10-41 11-19 29-30 19-11 42-11 22 0 41 11 18 11 28 30t10 41l-1 15h-117q3 14 13 23 11 8 26 8 12 0 22-6t16-15l31 24q-9 15-28 24t-41 9Zm-39-98h77q-3-13-14-22t-25-9q-14 0-25 9-10 8-13 22Z"/></g></svg>