<svg xmlns="http://www.w3.org/2000/svg" style="isolation:isolate" viewBox="-1676 10 2268 908" width="3024" height="908pt"><clipPath id="a"><path fill="#FFF" d="M-1676 10H592v908h-2268z"/></clipPath><g clip-path="url(#a)"><path d="M317 30q33-1 55 8 21-2 29 10l41 75c10 7 21-2 31 1l9 5 73 172 18 44c9 10 9 23 8 35l-32 98c-1 16-6 33-17 45l-46 24c-12 3-21 11-19 24l11 46q-8-2 31 198l-82 43c-22 23-57 23-87 20l-101-26c-24-1-48-11-61-32l-3-5-52-14c-15-3-33 5-35 21l18 22c5 3 7 9 8 14l-6 8q-8 13-29 13-24-3-39 3-89-1-169 8l-7-5-26-40c-10-4-12-16-12-25l2-5 42-158c2-15 2-31-1-46l21-95 18-45c-1-8-2-19 7-23l21-23 76-86 18-21c5-7 7-16 7-25l11-61 2-10 9-50c0-6 0-12 4-17l3-16-1-2c0-28 25-38 48-41l7 5 2 3 43 42c3 10 14 15 25 16l104-86 11-27c1-7 3-14 10-18l2-1Z" fill="#FDFDFD"/><path d="m-1502 631-98-292h67l47 165q9 33 11 50 4-25 12-50l58-165h53l58 165q9 25 13 50 2-20 11-50l46-165h67l-97 292h-53l-59-165q-9-23-12-48-4 25-12 48l-60 165h-52Zm439 5q-33 0-59-15-27-15-42-41t-15-57q0-31 15-57 15-27 42-42 26-15 59-15t59 15q26 15 41 42 15 26 15 57t-15 57q-15 26-41 41t-59 15Zm-59-113q0 17 7 31t21 23q13 8 31 8 17 0 31-8 14-9 21-23t7-31q0-17-7-31-8-15-21-23-14-9-31-9-18 0-31 9-13 8-21 23-7 14-7 31Zm199 108V414h55v41q6-24 23-36t44-10v53h-8q-25 0-41 16-16 15-16 42v111h-57Zm284 0-87-103v103h-56V326h56v176l82-88h80l-103 101 103 116h-75Zm90 0V414h56v217h-56Zm-6-268q0-14 10-24 9-9 24-9 14 0 24 9 9 10 9 24t-9 23q-10 10-24 10-15 0-24-10-10-10-10-23Zm95 268V414h56v32q17-37 66-37 23 0 42 11t30 31q11 21 11 47v133h-57V512q0-27-12-40-13-14-34-14-20 0-32 14-13 13-13 40v119h-57Zm240 0V339h99q46 0 72 21 25 21 25 56 0 22-11 37-10 14-36 24 34 8 49 26 14 19 14 47 0 25-12 43-13 18-36 28-24 10-55 10h-109Zm58-53h46q49 0 49-37 0-16-13-25t-36-9h-46v71Zm0-119h35q23 0 34-8 10-8 10-26 0-34-44-34h-35v68ZM80 631l-98-292h67l46 165q10 33 12 50 3-25 12-50l58-165h53l58 165q9 25 13 50 2-20 10-50l47-165h67l-98 292h-52l-60-165q-8-23-12-48-3 25-12 48l-59 165H80Z"/></g></svg>